<svg xmlns="http://www.w3.org/2000/svg" viewBox="0 0 22.08 22.08"><defs><style>.cls-1{fill:#fbefda;}</style></defs><title>icon_01</title><g id="レイヤー_2" data-name="レイヤー 2"><g id="design"><path class="cls-1" d="M11.37,0A11,11,0,1,0,22.08,11.25,11,11,0,0,0,11.37,0ZM11,20.63a9.59,9.59,0,1,1,9.62-9.57A9.58,9.58,0,0,1,11,20.63Z"/><path class="cls-1" d="M11.23,14.87a7.46,7.46,0,0,1,4.46,1.57c.39.3.75.71.41,1.21s-.87.32-1.27,0a6.29,6.29,0,0,0-7.59-.09c-.41.26-.88.6-1.25.07s.1-1,.55-1.36A7.76,7.76,0,0,1,11.23,14.87Z"/><path class="cls-1" d="M11.12,4.81A4.42,4.42,0,0,0,6.67,9.17a4.49,4.49,0,0,0,4.41,4.69,4.5,4.5,0,0,0,4.33-4.54A4.43,4.43,0,0,0,11.12,4.81Zm0,7.47c-1.67.18-3-1.2-3-3.63,0-1.21,1.1-2.12,2.78-2.34a2.91,2.91,0,0,1,3,3A2.78,2.78,0,0,1,11.16,12.28Z"/></g></g></svg>