<svg xmlns="http://www.w3.org/2000/svg" viewBox="0 0 21.34 18.92"><defs><style>.cls-1{fill:#f9edd9;}</style></defs><title>icon_02</title><g id="レイヤー_2" data-name="レイヤー 2"><g id="design"><path class="cls-1" d="M21.32,4a3.69,3.69,0,0,0-4-3.94C15.19,0,13,0,10.86,0S6.39,0,4.16,0C1.56.05.09,1.46,0,4,0,6.75,0,9.51,0,12.27a3.7,3.7,0,0,0,4,3.91c2.43,0,4.86.1,7.29,0,3.08-.15,6,0,8.44,2.26,1,.93,1.59.52,1.59-.87C21.31,13,21.37,8.49,21.32,4ZM20.14,16.82l-.38.38C17.25,14.37,14,15,10.89,15,8.6,15,6.3,15,4,15a2.48,2.48,0,0,1-2.77-2.65q-.08-4.23,0-8.47A2.47,2.47,0,0,1,4,1.21q6.7,0,13.4,0c1.62,0,2.71.82,2.74,2.46C20.19,8.05,20.14,12.44,20.14,16.82Z"/><path class="cls-1" d="M10.81,4.39c1.44,0,2.89,0,4.33,0,.59,0,1.32,0,1.32.79s-.67.72-1.19.72q-4.63,0-9.25,0c-.52,0-1.17-.08-1.13-.78s.67-.71,1.2-.72C7.66,4.37,9.24,4.39,10.81,4.39Z"/><path class="cls-1" d="M10.48,8.69c-1.57,0-3.13,0-4.7,0-.45,0-1,0-.93-.67.06-.51.54-.49.92-.49h9.79c.45,0,1,0,.93.67-.06.51-.54.49-.92.49Z"/><path class="cls-1" d="M8.8,11.79c-1,0-2.1,0-3.15,0a.71.71,0,1,1,0-1.42q3.25,0,6.49,0a.72.72,0,0,1,.78.72.74.74,0,0,1-.8.71C11,11.82,9.91,11.79,8.8,11.79Z"/></g></g></svg>